<?xml version="1.0" encoding="iso-8859-1"?>
<!-- Generator: Adobe Illustrator 19.0.0, SVG Export Plug-In . SVG Version: 6.00 Build 0)  -->
<svg version="1.1" id="Capa_1" xmlns="http://www.w3.org/2000/svg" xmlns:xlink="http://www.w3.org/1999/xlink" x="0px" y="0px"
	 viewBox="0 0 512.005 512.005" style="enable-background:new 0 0 512.005 512.005;" xml:space="preserve">
<rect x="276.077" y="273.2" transform="matrix(-0.7071 -0.7071 0.7071 -0.7071 323.1108 770.2356)" style="fill:#00465F;" width="89.999" height="89.999"/>
<g>
	
		<rect x="148.797" y="145.92" transform="matrix(-0.7071 -0.7071 0.7071 -0.7071 195.8304 462.9556)" style="fill:#00607F;" width="89.999" height="89.999"/>
	
		<rect x="8.026" y="443.975" transform="matrix(-0.7071 0.7071 -0.7071 -0.7071 415.0637 746.0243)" style="fill:#00607F;" width="89.999" height="30"/>
	
		<rect x="124.106" y="325.85" transform="matrix(-0.7071 0.7071 -0.7071 -0.7071 533.18 460.8483)" style="fill:#00607F;" width="94.079" height="30"/>
	
		<rect x="339.718" y="112.289" transform="matrix(-0.7071 0.7071 -0.7071 -0.7071 746.76 -54.7408)" style="fill:#00607F;" width="89.999" height="30"/>
</g>
<rect x="29.559" y="41.673" transform="matrix(-0.7071 -0.7071 0.7071 -0.7071 121.5997 283.7122)" style="fill:#0095FF;" width="179.998" height="149.999"/>
<g>
	
		<rect x="91.747" y="53.94" transform="matrix(-0.7071 -0.7071 0.7071 -0.7071 146.283 198.4729)" style="fill:#00C0F1;" width="45" height="30"/>
	
		<rect x="49.331" y="96.375" transform="matrix(-0.7071 -0.7071 0.7071 -0.7071 43.8695 240.9218)" style="fill:#00C0F1;" width="45" height="30"/>
	
		<rect x="144.782" y="106.98" transform="matrix(-0.7071 -0.7071 0.7071 -0.7071 199.3145 326.5193)" style="fill:#00C0F1;" width="45" height="30"/>
	
		<rect x="102.361" y="149.4" transform="matrix(-0.7071 -0.7071 0.7071 -0.7071 96.903 368.939)" style="fill:#00C0F1;" width="45" height="30"/>
</g>
<rect x="305.334" y="317.447" transform="matrix(-0.7071 -0.7071 0.7071 -0.7071 397.3748 949.4913)" style="fill:#136EF1;" width="179.998" height="149.999"/>
<g>
	
		<rect x="367.529" y="329.712" transform="matrix(-0.7071 -0.7071 0.7071 -0.7071 422.0724 864.2522)" style="fill:#00ABE9;" width="45" height="30"/>
	
		<rect x="325.101" y="372.139" transform="matrix(-0.7071 -0.7071 0.7071 -0.7071 319.6437 906.6791)" style="fill:#00ABE9;" width="45" height="30"/>
	
		<rect x="420.559" y="382.751" transform="matrix(-0.7071 -0.7071 0.7071 -0.7071 475.0959 992.2936)" style="fill:#00ABE9;" width="45" height="30"/>
	
		<rect x="378.131" y="425.174" transform="matrix(-0.7071 -0.7071 0.7071 -0.7071 372.6702 1034.7134)" style="fill:#00ABE9;" width="45" height="30"/>
</g>
<g>
	
		<rect x="345.016" y="125.089" transform="matrix(-0.7071 0.7071 -0.7071 -0.7071 759.5524 -49.4395)" style="fill:#00465F;" width="89.999" height="15"/>
	
		<rect x="168.952" y="299.117" transform="matrix(0.7071 0.7071 -0.7071 0.7071 296.4515 -23.3833)" style="fill:#00465F;" width="15" height="94.079"/>
	
		<rect x="50.836" y="419.28" transform="matrix(0.7071 0.7071 -0.7071 0.7071 345.3816 94.7347)" style="fill:#00465F;" width="15" height="89.999"/>
</g>
<path style="fill:#C6E2E7;" d="M159.099,352.905c-40.941-40.941-107.551-40.941-148.492,0L0,363.512l148.492,148.492l10.607-10.607
	C200.04,460.456,200.04,393.846,159.099,352.905z"/>
<path style="fill:#8EBAC5;" d="M159.099,501.397l-10.607,10.607l-74.246-74.246l84.853-84.853
	C200.04,393.846,200.04,460.456,159.099,501.397z"/>
<path style="fill:#C6E2E7;" d="M321.081,84.857L130.162,275.776l106.066,106.066l190.919-190.919L321.081,84.857z"/>
<rect x="267.669" y="124.859" transform="matrix(-0.7071 -0.7071 0.7071 -0.7071 337.2088 659.3909)" style="fill:#8EBAC5;" width="74.999" height="269.997"/>
<path style="fill:#C6E2E7;" d="M427.147,21.217l-63.64,63.64l63.64,63.64l63.64-63.64L427.147,21.217z"/>
<rect x="420.558" y="55.762" transform="matrix(-0.7071 -0.7071 0.7071 -0.7071 685.0984 485.3005)" style="fill:#8EBAC5;" width="45" height="89.999"/>
<g>
</g>
<g>
</g>
<g>
</g>
<g>
</g>
<g>
</g>
<g>
</g>
<g>
</g>
<g>
</g>
<g>
</g>
<g>
</g>
<g>
</g>
<g>
</g>
<g>
</g>
<g>
</g>
<g>
</g>
</svg>
